<?xml version="1.0" encoding="UTF-8" standalone="no"?>
<!-- Created with Inkscape (http://www.inkscape.org/) -->

<svg
   xmlns:dc="http://purl.org/dc/elements/1.1/"
   xmlns:cc="http://creativecommons.org/ns#"
   xmlns:rdf="http://www.w3.org/1999/02/22-rdf-syntax-ns#"
   xmlns:svg="http://www.w3.org/2000/svg"
   xmlns="http://www.w3.org/2000/svg"
   xmlns:sodipodi="http://sodipodi.sourceforge.net/DTD/sodipodi-0.dtd"
   xmlns:inkscape="http://www.inkscape.org/namespaces/inkscape"
   width="131mm"
   height="38.5mm"
   viewBox="0 0 131 38.5"
   version="1.1"
   id="svg893"
   sodipodi:docname="TournamentsLogo.svg"
   inkscape:version="0.92.4 (5da689c313, 2019-01-14)"
   style="shape-rendering:crispEdges">
  <defs
     id="defs887">
    <inkscape:path-effect
       effect="spiro"
       id="path-effect1685"
       is_visible="true" />
    <inkscape:path-effect
       effect="spiro"
       id="path-effect1679"
       is_visible="true" />
    <inkscape:path-effect
       effect="spiro"
       id="path-effect1673"
       is_visible="true" />
    <inkscape:path-effect
       effect="spiro"
       id="path-effect1667"
       is_visible="true" />
    <inkscape:path-effect
       effect="spiro"
       id="path-effect1659"
       is_visible="true" />
    <inkscape:path-effect
       effect="spiro"
       id="path-effect1569"
       is_visible="true" />
  </defs>
  <sodipodi:namedview
     id="base"
     pagecolor="#ffffff"
     bordercolor="#666666"
     borderopacity="1.0"
     inkscape:pageopacity="0.0"
     inkscape:pageshadow="2"
     inkscape:zoom="1.979898985"
     inkscape:cx="345.0632077"
     inkscape:cy="169.9456468"
     inkscape:document-units="mm"
     inkscape:current-layer="layer1"
     showgrid="false"
     showborder="true"
     inkscape:showpageshadow="false"
     inkscape:window-width="2560"
     inkscape:window-height="1377"
     inkscape:window-x="-8"
     inkscape:window-y="-8"
     inkscape:window-maximized="1"
     inkscape:snap-others="false"
     inkscape:snap-grids="false"
     inkscape:snap-to-guides="false"
     inkscape:object-nodes="false" />
  <metadata
     id="metadata890">
    <rdf:RDF>
      <cc:Work
         rdf:about="">
        <dc:format>image/svg+xml</dc:format>
        <dc:type
           rdf:resource="http://purl.org/dc/dcmitype/StillImage" />
        <dc:title></dc:title>
      </cc:Work>
    </rdf:RDF>
  </metadata>
  <g
     inkscape:label="Layer 1"
     inkscape:groupmode="layer"
     id="layer1"
     transform="translate(0,-258.5)">
    <path
       style="display:inline;fill:#f0b80b;fill-opacity:1;stroke:none;stroke-width:0.5649999976;stroke-miterlimit:4;stroke-dasharray:none;stroke-opacity:1"
       d="m 31.8159154,259.6656752 c 0.2234261,0.1057609 0.44291274,0.2195792 0.65267335,0.3503662 0.67225468,0.4191547 1.26394549,0.9617085 1.77095132,1.5704467 0.58449088,0.7017709 1.05740046,1.4903383 1.46967773,2.3052857 0.62330735,1.2320901 1.11256016,2.5329963 1.43660482,3.8752156 0.30152655,1.2489476 0.45934288,2.5283193 0.56792399,3.8085531 0.1347183,1.5884061 0.19470257,3.1845396 0.13384197,4.7774862 -0.0626123,1.6387944 -0.25614553,3.2720816 -0.57205811,4.8813558 h 7.96230469 c 0.0975692,-0.9443722 0.17343937,-1.8910387 0.22375894,-2.8391032 0.13563066,-2.5553989 0.0980542,-5.1309797 -0.33072917,-7.6537964 -0.36396419,-2.1414424 -1.01542278,-4.2482781 -2.07894285,-6.1422608 -0.57676248,-1.0271345 -1.27357542,-1.9863218 -2.06964113,-2.8546061 a 22.88645618,22.88645618 0 0 0 -9.16636555,-2.0789428 z m -1.53582356,0.061495 a 22.88645618,22.88645618 0 0 0 -6.15414632,1.1859741 c 0.22213269,0.1440444 0.4386402,0.2968049 0.64130452,0.467155 0.44101906,0.3706998 0.83045057,0.7995901 1.18700764,1.2521199 0.42046486,0.5336393 0.79684531,1.1018309 1.12809653,1.694987 0.93528155,1.6747652 1.50404465,3.5369567 1.82831216,5.4275757 0.29666234,1.7296689 0.39311556,3.4947579 0.26716717,5.2451579 -0.0701725,0.9752387 -0.20880519,1.9443381 -0.3839559,2.9062825 -0.20388183,1.1197384 -0.45818959,2.2304619 -0.75964356,3.3279623 h 8.02121583 c 0.19128134,-0.9522023 0.3438884,-1.9120697 0.45578612,-2.876827 0.25966052,-2.2387356 0.30360276,-4.5038743 0.10025229,-6.7484253 -0.16900866,-1.8654912 -0.51152383,-3.7254646 -1.16943767,-5.4792521 -0.60767005,-1.6198536 -1.48945497,-3.1478831 -2.67270508,-4.4100668 -0.72944394,-0.7781046 -1.5710164,-1.4501144 -2.48925373,-1.9926432 z m -7.22643229,1.5776815 A 22.88645618,22.88645618 0 0 0 8.669007855,281.2343846 h 0.31367594 c 0.21050029,-0.7476195 0.46399403,-1.4834113 0.76016032,-2.2014161 0.533969515,-1.2945183 1.203505665,-2.5308092 1.960603835,-3.7088175 0.81117643,-1.2621514 1.72485522,-2.4608972 2.7636556,-3.543453 1.2882356,-1.3424975 2.76033776,-2.498037 4.29947917,-3.5434529 0.95856515,-0.6510768 1.94811788,-1.2628374 3.00033365,-1.7482137 1.03919226,-0.4793687 2.13255561,-0.8320646 3.23649496,-1.133781 0.44417419,-0.1213967 0.89115588,-0.2328094 1.33945312,-0.3379638 -0.22678765,-0.4129574 -0.47558983,-0.8138509 -0.74879149,-1.1978597 -0.57358174,-0.8062191 -1.2512484,-1.5418405 -2.03191732,-2.1497396 -0.16475197,-0.1282907 -0.33520536,-0.2483366 -0.50849609,-0.3648356 z m 20.33364257,1.7296102 c 0.28208603,0.4330971 0.5520899,0.874204 0.79840087,1.328601 0.79505339,1.4667229 1.39808239,3.0365577 1.79678955,4.6565634 0.37808572,1.5362177 0.57261583,3.114202 0.6516398,4.6942871 0.0851482,1.7025392 0.0371991,3.408887 -0.0501261,5.1113159 -0.0412215,0.8036267 -0.0926588,1.6066198 -0.15141194,2.4091553 h 7.8971924 A 22.88645618,22.88645618 0 0 0 43.38730212,263.0344619 Z m -16.67598471,2.7099121 0.0165365,0.1302246 c -1.25128803,0.2451743 -2.47933316,0.6096565 -3.66179198,1.0867554 -1.91756504,0.7736998 -3.7112457,1.8431002 -5.33869223,3.1186727 -1.89308316,1.4837751 -3.56679759,3.251479 -4.91391194,5.2441243 -1.22716644,1.8152189 -2.18045555,3.8146946 -2.820499675,5.9102336 h 5.846154785 c 0.16712411,-0.4240839 0.3631396,-0.8366105 0.58911133,-1.2324829 0.70948429,-1.2429222 1.69108814,-2.3127313 2.76365558,-3.2602662 1.16936279,-1.0330464 2.46122336,-1.9368849 3.87418215,-2.5988078 1.61137261,-0.7548727 3.37299435,-1.1835836 5.15058999,-1.262972 -0.0188111,-0.6750692 -0.0655216,-1.3496376 -0.14211017,-2.0205484 -0.13333185,-1.1679782 -0.35208226,-2.3288138 -0.70900065,-3.4488851 -0.18122736,-0.5687226 -0.40048881,-1.1256629 -0.65422369,-1.6660482 z m 1.50946858,8.1690104 c -0.65216476,0.023851 -1.30206147,0.09895 -1.94148355,0.2294433 -1.65241989,0.3372262 -3.22521035,1.028279 -4.63020834,1.9611207 -1.48409324,0.9853566 -2.78856408,2.2447144 -3.80338541,3.7088175 -0.31562567,0.4553595 -0.60177831,0.9310953 -0.85937906,1.4216187 h 10.02006022 c 0.25673772,-0.8900883 0.47969725,-1.7901901 0.66662599,-2.6975098 0.23296636,-1.1307791 0.41131442,-2.2737029 0.49609375,-3.4251139 0.0293676,-0.3988513 0.0444297,-0.7985291 0.0516764,-1.1983765 z M 8.703631065,284.1184461 a 22.88645618,22.88645618 0 0 0 4.526338695,12.165149 h 35.39112142 v -2.6256796 h 2.84013672 a 22.88645618,22.88645618 0 0 0 2.84582111,-9.5394694 z"
       id="path6611"
       inkscape:connector-curvature="0" />
    <path
       style="display:inline;fill:#0e1011;fill-opacity:1;stroke:#0e1011;stroke-width:0.3087467849px;stroke-linecap:butt;stroke-linejoin:miter;stroke-opacity:1"
       d="M 49.39324602,296.3521483 H 1.087908734 l 9.574632696,-23.09946 9.0904746,15.68802 6.7906125,-10.32721 8.5414199,14.74041 h 16.3084533 l -0.4144441,0.72185 -0.251314,0.40449 -0.62343811,0.91493 -0.4639606,0.64524 z"
       id="path1006-8-1"
       inkscape:connector-curvature="0" />
    <text
       xml:space="preserve"
       style="font-style:normal;font-weight:normal;font-size:10.5833330154px;line-height:1.25;font-family:sans-serif;letter-spacing:0px;word-spacing:0px;fill:#000000;fill-opacity:1;stroke:none;stroke-width:0.2645833194"
       x="76.97361755"
       y="200.9165955"
       id="text1496"><tspan
         sodipodi:role="line"
         id="tspan1494"
         x="76.97361755"
         y="210.280365"
         style="stroke-width:0.2645833194" /></text>
    <text
       xml:space="preserve"
       style="font-style:normal;font-weight:normal;font-size:10.5833330154px;line-height:1.25;font-family:sans-serif;letter-spacing:0px;word-spacing:0px;fill:#000000;fill-opacity:1;stroke:none;stroke-width:0.2645833194"
       x="72.39565277"
       y="280.6350403"
       id="text1500"><tspan
         sodipodi:role="line"
         id="tspan1498"
         x="72.39565277"
         y="280.6350403"
         style="font-style:normal;font-variant:normal;font-weight:normal;font-stretch:normal;font-size:19.7555561066px;font-family:Teko;-inkscape-font-specification:Teko;stroke-width:0.2645833194"><tspan
   style="font-size:19.7555561066px;fill:#f0b80b;fill-opacity:1"
   id="tspan1506">sun</tspan>sab</tspan></text>
    <text
       xml:space="preserve"
       style="font-style:normal;font-weight:normal;font-size:19.7555561066px;line-height:1.25;font-family:sans-serif;letter-spacing:0px;word-spacing:0px;fill:#000000;fill-opacity:1;stroke:none;stroke-width:0.2645833194"
       x="56.44643784"
       y="295.5353088"
       id="text1504"><tspan
         sodipodi:role="line"
         id="tspan1502"
         x="56.44643784"
         y="295.5353088"
         style="font-style:normal;font-variant:normal;font-weight:normal;font-stretch:normal;font-size:19.7555561066px;font-family:Teko;-inkscape-font-specification:Teko;stroke-width:0.2645833194">tournaments</tspan></text>
  </g>
</svg>
